<svg width="1500" height="500" viewBox="0 0 1500 500" fill="none" xmlns="http://www.w3.org/2000/svg">
<path d="M354.892 198.581C355.494 204.001 355.614 208.578 355.253 212.312C355.253 212.312 354.892 215.262 354.169 221.164C353.928 223.212 353.868 225.861 353.988 229.113C354.229 232.365 353.928 234.714 353.085 236.159C352.242 237.484 350.797 238.327 348.749 238.688C346.822 239.05 345.256 238.99 344.052 238.508C342.968 237.906 341.944 237.303 340.98 236.701C338.572 235.376 336.584 235.196 335.019 236.159C333.573 237.123 332.549 238.568 331.947 240.495C331.345 242.422 330.984 244.65 330.863 247.18C330.502 250.913 330.502 255.791 330.863 261.813C330.984 263.981 330.984 265.728 330.863 267.053C330.863 268.257 330.863 269.341 330.863 270.305C330.863 272.593 331.225 274.821 331.947 276.989C332.67 279.157 333.031 280.783 333.031 281.867C333.031 282.951 332.851 283.854 332.489 284.577C332.248 285.179 331.827 285.721 331.225 286.203C330.622 286.564 330.08 286.986 329.599 287.468C329.117 287.829 328.575 288.251 327.973 288.732C327.491 289.094 326.949 289.515 326.347 289.997C326.949 295.899 327.069 300.596 326.708 304.089C326.347 307.461 326.106 310.352 325.985 312.761C325.865 315.17 325.263 317.036 324.179 318.361C322.733 320.048 319.843 321.252 315.507 321.975C312.978 322.095 311.111 320.77 309.906 318C308.702 315.35 308.16 312.098 308.28 308.244C308.521 304.39 308.461 301.439 308.1 299.392C307.738 297.224 307.257 295.417 306.654 293.972C306.173 292.526 305.691 291.262 305.209 290.178C304.727 288.973 304.306 287.347 303.944 285.3C303.583 283.252 303.824 281.024 304.667 278.615C302.981 276.688 301.837 274.641 301.234 272.473C300.632 270.305 300.692 267.474 301.415 263.981C302.258 260.368 302.8 257.116 303.041 254.226C303.402 251.335 303.523 248.685 303.402 246.276C303.161 240.736 301.897 237.544 299.608 236.701C297.922 236.219 296.055 236.641 294.008 237.966C292.081 239.291 290.575 240.134 289.491 240.495C288.407 240.856 287.323 240.616 286.239 239.772C285.276 238.929 284.794 237.906 284.794 236.701C284.914 235.497 285.155 234.232 285.517 232.907C285.878 231.462 286.179 230.077 286.42 228.752C286.781 227.427 286.721 226.162 286.239 224.958C285.757 223.754 285.155 222.971 284.433 222.609C283.71 222.248 283.048 221.646 282.445 220.803C280.88 218.876 280.458 215.503 281.181 210.686C281.903 205.747 282.445 201.713 282.807 198.581C283.168 195.45 283.409 193.161 283.529 191.716C283.77 190.15 284.192 188.765 284.794 187.561C285.396 186.356 286.299 185.272 287.504 184.309C290.515 182.141 294.429 181.358 299.247 181.96C321.409 184.971 333.995 185.995 337.006 185.031C338.21 184.67 339.294 184.309 340.258 183.947C348.568 180.575 353.446 185.453 354.892 198.581ZM365.551 284.035L365.37 274.821C365.37 273.135 365.43 271.569 365.551 270.124C365.671 268.558 365.551 266.631 365.189 264.343C364.587 260.368 364.286 257.478 364.286 255.671C364.407 253.744 364.407 252.238 364.286 251.154C364.286 249.95 364.166 248.866 363.925 247.902C363.563 246.457 362.66 244.169 361.215 241.037C359.89 237.906 359.228 234.533 359.228 230.92C359.228 227.307 360.01 224.416 361.576 222.248C363.021 220.08 363.563 217.852 363.202 215.563C362.841 213.275 362.54 210.866 362.299 208.337C362.178 205.687 362.178 203.037 362.299 200.388C362.419 197.618 363.021 194.968 364.105 192.438C366.755 186.296 372.055 183.345 380.004 183.586C384.942 183.706 389.218 184.188 392.831 185.031C396.444 185.874 399.094 186.236 400.78 186.115C402.466 185.995 405.056 185.393 408.549 184.309C413.607 182.382 417.642 182.502 420.653 184.67C421.496 185.272 422.279 185.754 423.002 186.115C423.845 186.356 424.568 186.778 425.17 187.38C427.217 189.668 427.82 194.667 426.977 202.375C426.736 204.663 426.495 206.952 426.254 209.24C425.652 214.66 425.652 218.695 426.254 221.345C426.856 223.994 427.157 226.343 427.157 228.391C427.278 230.318 427.217 232.064 426.977 233.63C426.254 237.123 424.869 238.869 422.821 238.869C421.015 238.749 419.69 238.207 418.847 237.243C418.124 236.159 417.522 235.015 417.04 233.811C416.558 232.486 416.016 231.341 415.414 230.378C414.932 229.294 413.788 228.752 411.981 228.752C406.682 228.752 403.129 228.21 401.322 227.126C399.636 225.922 398.131 225.259 396.806 225.139C395.481 224.898 394.216 225.018 393.012 225.5C390.482 226.584 388.977 228.571 388.495 231.462C388.134 234.353 387.893 236.882 387.772 239.05C387.652 241.218 387.652 243.205 387.772 245.012C388.013 249.227 388.796 251.636 390.121 252.238C391.566 252.72 392.771 252.78 393.734 252.419C394.698 251.937 395.661 251.395 396.625 250.793C399.516 248.866 402.466 247.963 405.478 248.083C408.609 248.083 410.897 249.287 412.343 251.696C413.909 254.105 414.571 256.454 414.33 258.742C414.089 260.91 413.848 263.078 413.607 265.246C413.487 267.414 413.246 269.462 412.885 271.389C411.199 278.856 407.706 280.301 402.406 275.725C395.541 275.243 391.265 276.086 389.579 278.254C389.218 278.856 388.856 280.121 388.495 282.048C388.134 283.975 388.074 286.022 388.314 288.19C388.917 293.851 391.627 296.862 396.444 297.224C399.576 297.465 402.406 297.043 404.936 295.959C407.585 294.875 409.332 293.671 410.175 292.346C410.897 290.9 411.801 290.118 412.885 289.997C413.969 289.756 414.932 289.576 415.775 289.455C416.618 289.214 417.462 289.094 418.305 289.094C419.148 289.094 419.991 289.214 420.834 289.455C423.002 290.178 424.267 291.864 424.628 294.514C425.11 297.163 424.869 299.572 423.905 301.74C422.942 303.908 422.279 305.896 421.918 307.702C421.677 309.388 421.436 310.653 421.195 311.496C420.954 312.339 420.232 313.423 419.027 314.748C417.943 315.952 417.04 316.976 416.317 317.819C415.715 318.662 414.691 318.482 413.246 317.277C410.596 315.23 407.405 316.434 403.671 320.891C402.707 322.215 401.684 323.179 400.6 323.781C399.516 324.383 397.829 324.624 395.541 324.504C393.253 324.383 391.446 323.781 390.121 322.697C388.796 321.613 387.592 320.529 386.508 319.445C384.701 317.157 381.57 316.314 377.113 316.916C374.464 317.277 372.296 316.133 370.609 313.483C370.248 313.122 369.947 312.46 369.706 311.496C369.586 310.533 369.405 309.449 369.164 308.244C368.321 305.113 367.538 303.125 366.815 302.282C366.213 301.319 365.852 300.114 365.731 298.669C365.731 297.224 365.611 295.718 365.37 294.152C365.129 292.466 364.949 291.262 364.828 290.539C364.708 289.696 364.768 288.732 365.009 287.648C365.37 286.564 365.551 285.36 365.551 284.035ZM492.016 290.72C492.618 291.563 492.859 292.647 492.738 293.972C492.738 295.176 492.618 296.441 492.377 297.766C492.257 299.09 492.317 300.596 492.558 302.282C492.799 303.848 492.979 305.414 493.1 306.979C493.34 308.425 493.461 309.81 493.461 311.135C493.461 312.46 493.039 313.604 492.196 314.567C491.474 315.41 490.329 316.133 488.764 316.735C487.198 317.338 485.451 317.759 483.524 318C479.068 318.361 475.214 317.699 471.962 316.013C468.951 314.447 466.06 313.965 463.29 314.567C460.64 315.17 458.533 315.772 456.967 316.374C455.521 316.856 453.775 317.338 451.728 317.819C449.8 318.301 447.873 318.482 445.946 318.361C444.019 318.361 442.393 317.338 441.068 315.29C439.743 313.122 439.021 310.653 438.9 307.883C438.78 305.113 439.201 302.282 440.165 299.392C441.129 296.501 441.49 293.249 441.249 289.636C441.008 285.902 440.767 282.771 440.526 280.241C440.285 277.591 440.285 275.303 440.526 273.376C441.129 268.799 440.587 265.607 438.9 263.801C437.576 262.235 436.913 260.428 436.913 258.381C436.913 256.213 436.973 254.466 437.094 253.142C437.214 251.817 437.636 250.673 438.358 249.709C439.081 248.745 439.503 247.963 439.623 247.36C439.864 246.638 439.864 245.433 439.623 243.747C438.66 236.882 438.298 231.582 438.539 227.849C438.9 224.115 438.84 220.923 438.358 218.273C437.997 215.503 437.937 213.275 438.178 211.589C438.419 209.782 438.298 208.277 437.816 207.072C437.335 205.868 437.154 205.025 437.274 204.543C437.515 203.941 437.515 203.158 437.274 202.194C437.034 201.11 436.793 199.966 436.552 198.762C435.829 195.148 435.588 192.679 435.829 191.354C436.19 190.03 436.793 188.524 437.636 186.838C438.599 185.031 439.743 183.947 441.068 183.586C442.393 183.225 443.176 182.924 443.417 182.683C443.658 182.442 444.26 182.141 445.224 181.779C447.753 181.057 449.62 180.996 450.824 181.599C452.029 182.201 453.113 182.562 454.076 182.683C455.04 182.683 456.003 182.683 456.967 182.683C458.051 182.562 459.075 182.382 460.038 182.141L462.206 181.779C464.735 181.057 466.662 181.177 467.987 182.141C468.83 182.984 469.433 183.646 469.794 184.128C470.155 184.61 470.215 185.332 469.975 186.296C469.734 187.259 469.854 188.042 470.336 188.645C470.818 189.247 470.998 190.15 470.878 191.354C470.757 192.438 470.697 193.282 470.697 193.884C470.818 194.366 470.938 194.908 471.059 195.51C471.299 196.714 471.179 198.16 470.697 199.846C470.215 201.532 469.914 202.676 469.794 203.278C469.674 203.76 469.613 204.242 469.613 204.724C469.613 206.289 469.372 207.795 468.891 209.24C468.529 210.565 468.288 211.709 468.168 212.673C468.168 213.516 468.168 214.54 468.168 215.744V219.719C468.168 221.164 468.048 222.971 467.807 225.139C467.686 227.307 467.506 229.896 467.265 232.907C467.144 235.798 467.024 238.749 466.903 241.76C466.422 249.709 465.819 254.768 465.097 256.936C463.17 258.02 462.868 260.549 464.193 264.523L465.458 268.317C466.662 271.931 467.265 275.484 467.265 278.977C467.265 282.469 466.964 285.842 466.361 289.094C469.854 291.021 472.323 292.045 473.769 292.165C477.261 292.647 480.393 292.165 483.163 290.72C486.054 289.274 488.101 288.672 489.306 288.913C490.631 289.154 491.534 289.756 492.016 290.72ZM500.688 284.035L500.507 274.821C500.507 273.135 500.567 271.569 500.688 270.124C500.808 268.558 500.688 266.631 500.326 264.343C499.724 260.368 499.423 257.478 499.423 255.671C499.543 253.744 499.543 252.238 499.423 251.154C499.423 249.95 499.302 248.866 499.062 247.902C498.7 246.457 497.797 244.169 496.352 241.037C495.027 237.906 494.364 234.533 494.364 230.92C494.364 227.307 495.147 224.416 496.713 222.248C498.158 220.08 498.7 217.852 498.339 215.563C497.978 213.275 497.676 210.866 497.436 208.337C497.315 205.687 497.315 203.037 497.436 200.388C497.556 197.618 498.158 194.968 499.242 192.438C501.892 186.296 507.191 183.345 515.141 183.586C520.079 183.706 524.354 184.188 527.968 185.031C531.581 185.874 534.231 186.236 535.917 186.115C537.603 185.995 540.193 185.393 543.686 184.309C548.744 182.382 552.779 182.502 555.79 184.67C556.633 185.272 557.416 185.754 558.139 186.115C558.982 186.356 559.704 186.778 560.307 187.38C562.354 189.668 562.956 194.667 562.113 202.375C561.872 204.663 561.632 206.952 561.391 209.24C560.788 214.66 560.788 218.695 561.391 221.345C561.993 223.994 562.294 226.343 562.294 228.391C562.414 230.318 562.354 232.064 562.113 233.63C561.391 237.123 560.006 238.869 557.958 238.869C556.151 238.749 554.826 238.207 553.983 237.243C553.261 236.159 552.659 235.015 552.177 233.811C551.695 232.486 551.153 231.341 550.551 230.378C550.069 229.294 548.925 228.752 547.118 228.752C541.819 228.752 538.266 228.21 536.459 227.126C534.773 225.922 533.267 225.259 531.942 225.139C530.618 224.898 529.353 225.018 528.148 225.5C525.619 226.584 524.114 228.571 523.632 231.462C523.271 234.353 523.03 236.882 522.909 239.05C522.789 241.218 522.789 243.205 522.909 245.012C523.15 249.227 523.933 251.636 525.258 252.238C526.703 252.72 527.908 252.78 528.871 252.419C529.835 251.937 530.798 251.395 531.762 250.793C534.652 248.866 537.603 247.963 540.614 248.083C543.746 248.083 546.034 249.287 547.479 251.696C549.045 254.105 549.708 256.454 549.467 258.742C549.226 260.91 548.985 263.078 548.744 265.246C548.624 267.414 548.383 269.462 548.021 271.389C546.335 278.856 542.842 280.301 537.543 275.725C530.678 275.243 526.402 276.086 524.716 278.254C524.354 278.856 523.993 280.121 523.632 282.048C523.271 283.975 523.21 286.022 523.451 288.19C524.053 293.851 526.763 296.862 531.581 297.224C534.713 297.465 537.543 297.043 540.072 295.959C542.722 294.875 544.468 293.671 545.312 292.346C546.034 290.9 546.938 290.118 548.021 289.997C549.105 289.756 550.069 289.576 550.912 289.455C551.755 289.214 552.598 289.094 553.441 289.094C554.285 289.094 555.128 289.214 555.971 289.455C558.139 290.178 559.403 291.864 559.765 294.514C560.246 297.163 560.006 299.572 559.042 301.74C558.078 303.908 557.416 305.896 557.055 307.702C556.814 309.388 556.573 310.653 556.332 311.496C556.091 312.339 555.368 313.423 554.164 314.748C553.08 315.952 552.177 316.976 551.454 317.819C550.852 318.662 549.828 318.482 548.383 317.277C545.733 315.23 542.541 316.434 538.808 320.891C537.844 322.215 536.82 323.179 535.736 323.781C534.652 324.383 532.966 324.624 530.678 324.504C528.389 324.383 526.583 323.781 525.258 322.697C523.933 321.613 522.729 320.529 521.645 319.445C519.838 317.157 516.706 316.314 512.25 316.916C509.6 317.277 507.432 316.133 505.746 313.483C505.385 313.122 505.084 312.46 504.843 311.496C504.722 310.533 504.542 309.449 504.301 308.244C503.458 305.113 502.675 303.125 501.952 302.282C501.35 301.319 500.989 300.114 500.868 298.669C500.868 297.224 500.748 295.718 500.507 294.152C500.266 292.466 500.085 291.262 499.965 290.539C499.844 289.696 499.905 288.732 500.146 287.648C500.507 286.564 500.688 285.36 500.688 284.035ZM625.165 318.542C624.804 317.819 624.743 316.796 624.984 315.471C625.225 314.025 625.346 311.978 625.346 309.328C625.466 306.678 624.864 305.354 623.539 305.354C622.455 305.354 621.492 306.558 620.648 308.967C619.926 311.255 618.902 312.761 617.577 313.483C616.252 314.086 614.927 314.567 613.603 314.929C612.398 315.17 611.133 315.471 609.809 315.832C608.604 316.073 607.58 316.615 606.737 317.458C605.894 318.301 604.569 319.144 602.763 319.987C600.956 320.951 598.848 320.71 596.439 319.265C594.031 317.94 592.405 316.735 591.562 315.651C590.718 314.567 590.056 313.544 589.574 312.58C589.213 311.617 588.791 310.773 588.31 310.051C587.828 309.328 587.045 308.846 585.961 308.605C583.552 308.003 581.926 306.076 581.083 302.824C580.24 299.452 579.397 295.899 578.554 292.165C577.711 288.311 577.108 284.938 576.747 282.048C576.506 279.157 576.205 276.387 575.844 273.737C575.001 267.354 573.856 263.56 572.411 262.355C570.966 261.031 570.123 259.224 569.882 256.936C569.28 251.154 568.979 247.059 568.979 244.65C568.979 242.121 569.641 239.471 570.966 236.701C572.411 233.811 573.134 230.98 573.134 228.21C573.134 225.319 572.893 223.151 572.411 221.706C572.05 220.14 571.749 218.936 571.508 218.093C571.267 217.129 571.146 216.105 571.146 215.021C571.026 213.094 571.508 210.204 572.592 206.35C573.194 204.302 573.676 202.435 574.037 200.749C574.398 198.942 574.76 197.377 575.121 196.052C576.446 191.234 579.818 188.825 585.238 188.825H587.768C591.02 188.825 593.91 187.801 596.439 185.754C597.644 184.911 598.969 184.248 600.414 183.767C601.859 183.285 603.064 183.345 604.027 183.947C604.991 184.429 606.316 184.61 608.002 184.489C609.688 184.248 611.435 183.586 613.241 182.502C615.168 181.298 617.396 180.515 619.926 180.153C622.455 179.672 625.105 179.792 627.875 180.515C630.645 181.117 632.572 182.201 633.656 183.767C634.74 185.332 635.583 186.356 636.186 186.838C636.908 187.199 637.571 187.561 638.173 187.922C640.461 189.608 641.846 193.221 642.328 198.762C642.689 203.459 642.087 207.915 640.521 212.131C640.281 212.974 639.859 214.299 639.257 216.105C638.655 217.912 637.872 219.839 636.908 221.887C636.065 223.814 635.644 225.681 635.644 227.487C635.644 229.174 635.523 230.799 635.282 232.365C635.162 233.931 634.68 235.376 633.837 236.701C631.789 239.953 627.755 241.459 621.732 241.218C616.553 241.218 613.362 240.375 612.157 238.688C611.555 237.845 611.194 236.761 611.073 235.437C611.073 234.112 610.953 232.305 610.712 230.017C610.591 227.728 609.929 225.62 608.725 223.693C607.52 221.766 605.894 221.285 603.847 222.248C602.522 222.971 601.558 225.44 600.956 229.655C600.354 233.75 600.414 237.906 601.137 242.121C601.859 246.337 602.16 248.926 602.04 249.89C602.04 250.733 601.92 251.576 601.679 252.419C600.113 258.08 599.872 266.089 600.956 276.447C601.799 284.035 603.666 288.13 606.557 288.732C609.206 289.214 611.374 287.829 613.061 284.577C614.506 281.566 614.385 275.363 612.699 265.969C611.254 258.622 612.458 254.768 616.312 254.406C617.999 254.165 620.106 254.105 622.636 254.226C625.285 254.346 627.574 254.165 629.501 253.684C631.549 253.081 633.656 253.081 635.824 253.684C638.113 254.165 639.979 255.189 641.425 256.755C642.87 258.321 642.87 261.332 641.425 265.788C638.534 274.701 637.992 282.469 639.799 289.094C640.04 290.178 640.401 291.683 640.883 293.61C641.365 295.537 641.786 297.705 642.147 300.114C642.509 302.403 642.75 304.751 642.87 307.16C642.991 309.569 642.81 311.737 642.328 313.664C641.485 318.12 639.197 320.349 635.463 320.349C631.85 320.349 629.32 320.228 627.875 319.987C626.43 319.746 625.526 319.265 625.165 318.542ZM698.334 188.103L704.115 187.741C708.21 187.741 711.101 188.404 712.787 189.729C714.594 191.053 715.919 192.258 716.762 193.342C717.725 194.426 718.568 195.57 719.291 196.774C720.014 197.858 720.977 199.003 722.182 200.207C723.507 201.411 724.169 202.857 724.169 204.543C724.169 206.109 724.59 207.373 725.434 208.337C726.397 209.3 726.879 210.866 726.879 213.034C726.879 215.202 726.819 217.31 726.698 219.357C726.698 221.285 726.518 222.91 726.156 224.235C725.795 225.44 725.614 226.704 725.614 228.029C725.614 229.234 725.855 230.378 726.337 231.462C726.939 232.425 726.999 234.895 726.518 238.869C726.156 242.723 725.494 246.638 724.53 250.612C723.687 254.587 722.543 258.02 721.098 260.91C718.207 266.33 713.51 270.606 707.006 273.737C707.608 275.183 708.271 276.809 708.993 278.615C709.836 280.301 710.619 282.048 711.342 283.854C712.908 288.311 713.69 291.563 713.69 293.61C713.69 295.537 713.751 296.983 713.871 297.946C714.112 298.789 714.353 299.452 714.594 299.934C714.835 300.415 715.136 300.777 715.497 301.018C715.979 301.258 716.641 301.74 717.484 302.463C718.327 303.065 718.99 304.149 719.472 305.715C719.953 307.281 720.194 308.907 720.194 310.593C720.194 314.447 719.713 316.856 718.749 317.819C717.906 318.662 716.942 319.204 715.858 319.445C714.895 319.807 713.871 320.048 712.787 320.168C710.017 320.529 708.271 320.168 707.548 319.084C706.584 318.12 706.042 317.157 705.922 316.193C705.922 315.109 705.741 314.206 705.38 313.483C705.019 312.64 704.477 312.159 703.754 312.038C703.031 311.797 702.489 311.014 702.128 309.689C701.887 308.365 701.465 307.521 700.863 307.16C700.382 306.678 699.298 306.558 697.611 306.799C694.6 307.401 692.372 305.594 690.927 301.379C690.565 300.415 690.204 299.151 689.843 297.585C689.481 296.019 689.06 294.514 688.578 293.068C687.615 289.576 686.47 287.709 685.146 287.468C683.941 287.106 683.038 287.227 682.436 287.829C681.833 288.431 681.352 289.274 680.99 290.358C680.749 291.322 680.629 292.466 680.629 293.791C680.629 294.995 680.749 296.32 680.99 297.766C681.352 299.211 681.412 300.415 681.171 301.379C680.93 302.342 680.569 303.125 680.087 303.728C679.726 304.33 679.304 304.872 678.822 305.354C677.859 305.956 677.257 307.16 677.016 308.967C676.895 310.773 676.654 312.339 676.293 313.664C675.57 316.916 674.607 318.964 673.402 319.807C672.198 320.65 670.993 321.132 669.789 321.252C668.585 321.493 667.38 321.493 666.176 321.252C663.165 320.65 661.298 319.566 660.575 318C659.853 316.555 659.431 315.471 659.311 314.748C659.19 313.905 659.13 313.122 659.13 312.399C659.25 311.677 659.371 310.894 659.491 310.051C659.612 309.208 659.612 308.244 659.491 307.16C659.491 305.956 659.25 304.39 658.769 302.463C658.287 300.536 657.986 298.247 657.865 295.598L657.685 290.9C657.685 290.419 658.106 289.636 658.949 288.552C659.792 287.347 660.033 286.022 659.672 284.577C659.431 283.011 658.769 282.048 657.685 281.687C656.601 281.205 656.059 280.663 656.059 280.061C656.059 279.458 656.179 277.953 656.42 275.544C656.661 273.135 656.54 270.124 656.059 266.511C655.697 262.897 655.456 259.706 655.336 256.936C654.854 250.913 653.77 247.541 652.084 246.818C650.518 245.975 649.615 245.012 649.374 243.928C649.133 242.723 649.133 241.398 649.374 239.953C649.615 238.508 649.856 236.701 650.097 234.533C650.458 232.365 650.819 230.197 651.181 228.029C651.542 225.741 651.843 223.633 652.084 221.706C652.445 219.779 652.686 218.454 652.807 217.731C652.927 217.009 652.927 216.346 652.807 215.744C652.807 215.021 652.807 214.359 652.807 213.757C652.566 211.83 652.566 210.144 652.807 208.698C653.288 205.928 653.409 204.001 653.168 202.917C652.927 201.713 653.108 199.966 653.71 197.678C654.433 195.269 655.035 193.583 655.517 192.619C655.998 191.656 656.902 190.933 658.227 190.451C659.551 189.969 660.816 189.307 662.021 188.464C663.345 187.5 664.55 186.597 665.634 185.754C666.718 184.79 667.681 183.947 668.524 183.225C669.368 182.382 670.391 181.779 671.596 181.418C675.089 180.695 677.618 180.635 679.184 181.237C680.87 181.719 682.074 182.261 682.797 182.863C683.52 183.465 684.363 184.068 685.326 184.67C686.41 185.272 687.494 185.754 688.578 186.115C689.783 186.356 690.867 186.477 691.83 186.477C694.359 186.717 695.865 187.079 696.347 187.561C696.949 187.922 697.611 188.103 698.334 188.103ZM683.339 238.508L684.423 254.948C684.423 256.032 684.363 257.116 684.242 258.2C684.122 259.164 684.001 260.067 683.881 260.91C683.76 262.717 684.423 263.801 685.868 264.162C687.073 264.403 688.036 264.102 688.759 263.259C689.481 262.295 690.144 261.031 690.746 259.465C692.191 256.454 692.673 254.527 692.191 253.684C691.228 252.479 690.927 251.455 691.288 250.612C691.77 249.649 692.673 247.842 693.998 245.192C695.443 242.543 696.467 240.254 697.069 238.327C697.792 236.4 697.973 234.353 697.611 232.185C697.25 229.896 697.069 228.33 697.069 227.487V225.5C697.069 224.536 696.588 223.693 695.624 222.971C694.781 222.128 694.179 221.706 693.817 221.706C693.456 221.586 693.155 221.525 692.914 221.525C691.83 221.766 690.806 221.706 689.843 221.345C688.879 220.863 687.976 220.682 687.133 220.803C686.29 220.803 685.326 221.345 684.242 222.429C683.158 223.513 682.556 224.657 682.436 225.861C682.315 226.945 682.315 228.21 682.436 229.655C683.038 233.991 683.339 236.942 683.339 238.508ZM748.017 320.168C746.812 320.529 745.427 320.409 743.861 319.807C742.416 319.325 741.392 318.361 740.79 316.916C740.188 315.35 739.766 313.604 739.525 311.677C739.405 309.629 739.405 307.461 739.525 305.173C739.646 302.884 739.706 300.656 739.706 298.488C739.706 293.671 738.923 290.599 737.357 289.274C734.105 286.866 732.781 280.723 733.383 270.847C733.985 265.186 734.647 260.669 735.37 257.297C736.575 251.757 737.117 247.059 736.996 243.205C736.996 239.351 737.117 236.34 737.357 234.172C737.719 232.004 738.08 230.197 738.441 228.752C738.923 227.307 739.465 225.801 740.067 224.235C740.67 222.67 741.212 220.08 741.693 216.467C742.898 207.434 743.982 201.833 744.945 199.665C746.27 196.654 747.836 193.583 749.643 190.451C751.57 187.199 753.135 185.031 754.34 183.947C757.11 181.9 761.085 181.719 766.264 183.405C770.118 184.73 773.671 185.152 776.923 184.67C780.295 184.188 782.825 184.007 784.511 184.128C786.317 184.128 788.305 184.79 790.473 186.115C792.641 187.32 794.327 188.825 795.531 190.632C796.736 192.318 797.579 194.185 798.061 196.232C798.904 199.725 798.964 204.182 798.241 209.602C797.519 214.901 797.217 219.237 797.338 222.609C797.579 225.861 798.301 228.993 799.506 232.004C800.831 234.895 801.674 237.243 802.035 239.05C802.517 240.736 802.878 242.482 803.119 244.289C803.48 245.975 803.721 247.842 803.842 249.89C804.083 251.817 804.444 254.045 804.926 256.574C805.528 259.104 805.829 261.151 805.829 262.717C805.95 264.162 805.95 265.367 805.829 266.33C805.709 267.294 805.528 268.197 805.287 269.04C805.167 269.763 805.227 270.967 805.468 272.653C805.829 274.219 805.829 275.965 805.468 277.893C805.227 279.82 804.926 281.687 804.564 283.493C803.24 289.034 802.698 292.948 802.938 295.236C803.42 299.331 803.42 302.282 802.938 304.089C802.457 305.775 801.975 307.16 801.493 308.244C801.132 309.328 800.65 310.834 800.048 312.761C799.566 314.688 798.482 316.434 796.796 318C795.11 319.566 793.484 320.048 791.918 319.445C790.473 318.843 789.509 318 789.027 316.916C788.666 315.712 788.305 314.507 787.943 313.303C787.702 312.098 787.341 311.014 786.859 310.051C786.498 309.087 785.775 308.545 784.691 308.425C782.764 308.184 781.741 307.1 781.62 305.173C781.5 303.125 781.5 301.379 781.62 299.934C781.861 298.368 781.801 296.802 781.439 295.236C781.078 293.671 780.476 292.165 779.633 290.72C777.465 286.986 774.936 284.938 772.045 284.577C767.709 283.975 764.698 286.083 763.012 290.9C762.65 292.105 762.349 293.731 762.108 295.778C761.988 297.705 761.506 299.452 760.663 301.018C759.94 302.583 759.097 303.908 758.134 304.992C757.291 306.076 756.448 307.1 755.604 308.063C754.882 308.907 754.4 309.991 754.159 311.315C753.196 316.494 751.148 319.445 748.017 320.168ZM764.096 244.47C761.687 250.974 761.386 256.153 763.192 260.007C764.397 262.175 765.963 263.319 767.89 263.439C771.382 263.801 773.43 263.56 774.032 262.717C774.755 261.753 775.538 260.79 776.381 259.826C777.344 258.742 777.706 257.176 777.465 255.129C777.224 252.961 777.043 251.094 776.923 249.528C776.802 247.842 776.2 245.975 775.116 243.928C774.153 241.88 773.49 239.712 773.129 237.424C772.768 235.015 772.527 232.727 772.406 230.559C771.924 225.741 770.84 223.332 769.154 223.332C767.95 223.332 767.167 223.994 766.806 225.319C766.565 226.524 766.384 228.15 766.264 230.197C766.143 236.46 765.421 241.218 764.096 244.47ZM901.762 316.735C897.787 316.735 895.98 313.363 896.342 306.618C896.583 302.041 896.583 298.007 896.342 294.514C896.221 291.021 895.499 287.347 894.174 283.493C892.849 279.639 891.946 276.146 891.464 273.015C890.982 269.883 891.343 266.451 892.548 262.717C894.234 257.417 894.354 251.516 892.909 245.012C892.668 243.928 892.548 242.844 892.548 241.76C892.548 240.555 892.488 239.471 892.367 238.508C892.247 236.219 891.645 235.075 890.561 235.075C889.597 235.075 888.935 235.918 888.573 237.604C887.851 241.94 887.007 245.313 886.044 247.722C883.394 253.985 882.37 259.164 882.973 263.259C884.538 269.281 884.418 273.918 882.611 277.17C881.768 278.736 880.744 279.88 879.54 280.603C878.336 281.325 877.553 281.988 877.191 282.59C876.83 283.072 876.649 284.035 876.649 285.48C876.77 286.805 876.469 287.889 875.746 288.732C875.023 289.576 874.542 290.479 874.301 291.442C874.18 292.406 874 293.309 873.759 294.152C873.157 296.32 871.832 297.284 869.784 297.043C867.737 296.802 866.291 295.537 865.448 293.249C864.726 290.961 864.123 288.311 863.642 285.3C863.28 282.289 862.859 279.278 862.377 276.267C862.016 273.256 861.233 270.967 860.028 269.401C858.944 267.836 858.161 266.27 857.68 264.704C857.318 263.138 857.017 261.512 856.776 259.826C856.174 255.731 855.391 252.901 854.428 251.335C853.585 249.89 852.922 247.18 852.44 243.205C851.959 239.23 851.477 236.521 850.995 235.075C850.634 233.63 849.911 232.907 848.827 232.907C847.623 233.028 846.96 233.931 846.84 235.617C846.719 237.303 846.9 238.688 847.382 239.772C847.864 240.856 847.924 242.784 847.562 245.554C847.201 248.324 847.261 250.733 847.743 252.78C848.225 254.828 848.707 256.695 849.188 258.381C849.67 259.947 850.092 261.633 850.453 263.439C851.658 268.378 851.898 272.593 851.176 276.086C850.574 279.458 850.212 282.108 850.092 284.035C849.971 285.842 849.188 287.167 847.743 288.01C846.418 288.853 845.575 289.756 845.214 290.72C844.973 291.563 844.792 292.587 844.672 293.791C844.551 294.875 844.431 296.079 844.311 297.404C844.19 298.609 843.769 300.114 843.046 301.921C841.48 305.775 840.938 308.605 841.42 310.412C842.022 312.219 841.721 314.146 840.517 316.193C839.433 318.241 837.807 319.325 835.639 319.445C833.591 319.686 831.905 319.325 830.58 318.361C829.376 317.398 828.292 316.193 827.328 314.748C823.354 308.244 821.788 300.897 822.631 292.707C822.751 290.9 822.872 289.094 822.992 287.287C823.233 285.48 823.233 283.252 822.992 280.603C822.631 274.099 821.125 268.98 818.476 265.246C816.669 262.717 815.645 259.646 815.404 256.032C814.802 249.769 815.163 245.313 816.488 242.663C817.09 241.459 817.392 239.592 817.392 237.062C817.392 234.413 817.331 232.546 817.211 231.462C817.211 230.257 817.271 229.414 817.392 228.933C817.632 228.33 817.753 227.367 817.753 226.042C817.873 224.597 817.934 222.971 817.934 221.164C817.813 217.912 817.392 214.961 816.669 212.312C815.946 209.541 815.465 207.193 815.224 205.266C815.103 203.218 815.163 201.231 815.404 199.304C815.766 194.968 816.488 191.896 817.572 190.09C818.777 188.283 819.861 187.259 820.824 187.019C821.788 186.657 822.872 186.477 824.076 186.477C825.281 186.477 826.304 186.296 827.147 185.935C827.991 185.453 828.894 185.031 829.857 184.67C831.905 183.827 833.892 183.767 835.819 184.489C837.746 185.212 839.372 185.453 840.697 185.212C842.143 184.971 843.467 184.67 844.672 184.309C847.803 183.104 850.152 182.803 851.718 183.405C853.404 184.007 854.91 185.031 856.234 186.477C857.559 187.922 858.282 189.126 858.402 190.09C858.643 190.933 858.944 191.535 859.306 191.896C859.667 192.258 860.089 192.619 860.57 192.98C861.534 193.824 862.016 195.148 862.016 196.955C862.016 199.605 862.738 203.158 864.184 207.614C866.713 216.045 869.122 220.622 871.41 221.345C871.892 221.465 872.735 221.104 873.939 220.261C875.144 219.418 875.987 218.153 876.469 216.467C877.191 213.576 877.432 211.408 877.191 209.963C876.951 208.397 877.131 207.193 877.733 206.35C878.456 205.507 878.817 204.724 878.817 204.001C878.938 203.278 879.058 202.315 879.179 201.11C879.299 199.906 879.54 198.521 879.901 196.955C880.865 192.98 882.25 189.969 884.057 187.922C885.863 185.874 887.73 184.67 889.657 184.309C891.584 183.947 893.511 183.887 895.438 184.128C897.486 184.248 899.473 184.429 901.4 184.67C903.448 184.79 905.495 184.429 907.543 183.586C912.963 181.177 916.697 181.117 918.744 183.405C919.346 184.007 919.888 184.429 920.37 184.67C920.972 184.911 921.514 185.152 921.996 185.393C922.96 186.115 923.502 187.259 923.622 188.825C923.863 190.271 924.104 191.294 924.345 191.896C924.586 192.378 924.826 192.86 925.067 193.342C926.392 196.473 927.235 201.893 927.597 209.602C927.958 222.248 927.717 229.475 926.874 231.281C927.717 236.219 927.296 239.712 925.609 241.76C925.248 242.121 924.887 242.482 924.525 242.844C922.357 245.012 921.033 247.902 920.551 251.516C920.31 252.961 920.31 254.165 920.551 255.129C920.912 256.092 921.093 257.116 921.093 258.2C921.093 259.284 921.033 260.248 920.912 261.091C920.912 261.934 920.912 262.837 920.912 263.801C920.671 267.294 920.611 269.823 920.731 271.389C920.972 272.954 920.972 274.099 920.731 274.821C920.611 275.544 920.43 276.206 920.189 276.809C919.587 278.615 919.407 280.181 919.647 281.506C919.888 282.71 919.888 283.674 919.647 284.396C919.407 285.119 919.105 285.842 918.744 286.564C917.781 288.612 917.359 291.262 917.479 294.514C917.72 297.645 917.6 300.295 917.118 302.463C916.757 304.631 916.576 306.859 916.576 309.147C916.335 315.531 915.492 318.482 914.047 318C913.445 317.759 912.903 318.06 912.421 318.903C912.06 319.746 911.698 320.83 911.337 322.155C911.096 323.48 910.313 323.902 908.988 323.42C907.663 323.059 906.76 322.095 906.278 320.529C905.917 318.964 905.375 317.94 904.652 317.458C904.05 316.976 903.087 316.735 901.762 316.735ZM986.493 294.152L985.409 287.468C985.409 286.263 985.168 285.48 984.687 285.119C984.205 284.637 983.422 283.915 982.338 282.951C981.254 281.988 980.591 280.482 980.351 278.435C980.11 276.267 980.049 273.798 980.17 271.027C980.411 267.535 981.073 261.633 982.157 253.322C981.314 242.964 980.772 236.28 980.531 233.269C979.206 217.37 979.568 207.554 981.615 203.82C982.097 202.857 982.579 202.134 983.061 201.652C984.024 200.689 984.446 199.123 984.325 196.955C983.843 192.499 986.192 189.427 991.371 187.741C992.937 187.259 994.442 186.657 995.888 185.935C997.333 185.212 998.839 184.549 1000.4 183.947C1003.9 182.743 1006.85 182.803 1009.26 184.128C1011.79 185.332 1014.38 185.814 1017.03 185.573C1019.68 185.212 1022.39 184.851 1025.16 184.489C1027.93 184.007 1030.58 183.706 1033.1 183.586C1035.75 183.465 1037.98 184.068 1039.79 185.393C1041.72 186.717 1043.7 188.163 1045.75 189.729C1047.92 191.294 1049.85 193.041 1051.53 194.968C1055.27 199.304 1056.83 203.519 1056.23 207.614C1058.16 212.191 1058.58 216.527 1057.49 220.622C1057.13 221.706 1057.07 222.79 1057.31 223.874C1057.8 226.042 1057.8 227.969 1057.31 229.655C1056.83 231.341 1056.71 233.148 1056.95 235.075C1057.31 236.882 1057.07 238.749 1056.23 240.676C1055.39 242.603 1054.84 244.41 1054.6 246.096C1054.36 247.782 1053.76 249.227 1052.8 250.432C1051.83 251.516 1050.93 252.178 1050.09 252.419C1049.36 252.539 1048.64 252.901 1047.92 253.503C1047.32 253.985 1046.83 254.527 1046.47 255.129C1046.23 255.731 1045.81 256.394 1045.21 257.116C1043.88 258.923 1042.02 260.428 1039.61 261.633C1040.93 263.921 1042.5 265.728 1044.31 267.053C1046.11 268.257 1047.62 269.642 1048.82 271.208C1050.15 272.653 1050.81 274.038 1050.81 275.363C1050.93 276.688 1051.23 278.013 1051.71 279.338C1052.19 280.663 1052.38 281.747 1052.25 282.59C1052.13 283.312 1051.95 284.156 1051.71 285.119C1051.59 285.962 1051.41 286.926 1051.17 288.01C1050.93 288.973 1050.81 290.118 1050.81 291.442C1050.93 292.647 1050.81 293.731 1050.45 294.694C1050.21 295.537 1049.79 296.441 1049.18 297.404C1048.7 298.247 1048.1 299.211 1047.38 300.295C1046.65 301.379 1045.99 302.704 1045.39 304.27C1044.67 306.197 1043.46 307.943 1041.78 309.509C1040.21 310.954 1038.95 312.159 1037.98 313.122C1037.14 313.965 1036.3 315.17 1035.45 316.735C1033.89 319.626 1031.72 321.493 1028.95 322.336C1026.42 323.059 1024.49 322.396 1023.17 320.349C1022.45 319.024 1021.12 318.783 1019.19 319.626C1017.39 320.469 1015.94 321.132 1014.86 321.613C1013.77 322.215 1012.45 322.396 1010.88 322.155C1009.44 322.035 1007.93 321.794 1006.37 321.433C1004.92 321.192 1003.42 321.312 1001.85 321.794C1000.28 322.396 998.839 322.577 997.514 322.336C996.189 322.095 994.984 321.674 993.9 321.071C991.492 319.867 989.926 318.181 989.203 316.013C988.48 313.845 987.999 311.617 987.758 309.328C987.517 306.919 987.156 304.751 986.674 302.824C986.192 300.777 985.951 299.331 985.951 298.488L986.493 294.152ZM1012.15 245.012C1012.15 251.395 1013.29 254.587 1015.58 254.587C1016.78 254.587 1017.87 253.744 1018.83 252.058C1019.8 250.251 1020.4 248.565 1020.64 246.999C1020.76 245.433 1020.82 243.868 1020.82 242.302C1020.94 240.616 1021.72 238.568 1023.17 236.159C1024.73 233.63 1025.22 231.341 1024.61 229.294C1024.13 227.126 1023.23 225.861 1021.9 225.5C1020.58 225.018 1019.37 224.356 1018.29 223.513C1017.33 222.549 1016.18 221.766 1014.86 221.164C1013.65 220.562 1012.57 221.044 1011.61 222.609C1010.76 224.055 1010.76 225.741 1011.61 227.668C1012.57 229.595 1012.87 232.185 1012.51 235.437C1012.27 238.688 1012.15 241.88 1012.15 245.012ZM1017.21 271.027C1014.44 270.184 1012.93 271.569 1012.69 275.183C1012.45 277.712 1012.15 280.301 1011.79 282.951C1011.42 285.601 1011.36 287.588 1011.61 288.913C1011.97 290.238 1012.33 291.683 1012.69 293.249C1013.41 293.851 1014.13 294.393 1014.86 294.875C1015.58 295.357 1016.24 295.839 1016.84 296.32C1017.57 294.875 1018.23 293.791 1018.83 293.068C1019.55 292.346 1020.16 291.563 1020.64 290.72C1021.84 288.793 1022.51 286.444 1022.63 283.674C1022.87 280.783 1022.69 278.495 1022.08 276.809C1021.12 273.677 1019.49 271.75 1017.21 271.027ZM1083.33 193.342C1084.65 192.137 1085.8 190.873 1086.76 189.548C1087.73 188.103 1088.99 186.778 1090.56 185.573C1094.77 182.08 1098.99 181.057 1103.2 182.502C1108.38 184.429 1113.14 185.633 1117.47 186.115C1121.81 186.597 1124.94 187.681 1126.87 189.367C1128.92 191.053 1130.66 192.86 1132.11 194.787C1135.6 199.364 1137.71 204.362 1138.43 209.782C1138.55 211.83 1138.91 213.275 1139.52 214.118C1141.08 216.768 1141.56 220.321 1140.96 224.777C1140.48 229.234 1140.3 232.365 1140.42 234.172C1140.66 235.858 1140.96 237.123 1141.32 237.966C1141.8 238.809 1142.23 239.652 1142.59 240.495C1143.55 242.784 1144.03 245.072 1144.03 247.36C1144.03 250.251 1143.07 253.142 1141.14 256.032C1140.3 257.116 1140 259.224 1140.24 262.355C1140.48 265.487 1140.66 268.618 1140.78 271.75C1140.9 279.579 1140.48 284.457 1139.52 286.384C1138.55 288.19 1137.83 289.274 1137.35 289.636C1136.99 289.997 1136.62 290.298 1136.26 290.539C1134.46 291.382 1132.83 293.911 1131.39 298.127C1130.06 302.222 1128.25 305.594 1125.97 308.244C1123.68 310.773 1121.27 312.881 1118.74 314.567C1116.33 316.133 1114.4 317.338 1112.96 318.181C1111.63 319.144 1110.67 320.048 1110.07 320.891C1109.47 321.734 1108.86 322.577 1108.26 323.42C1106.69 325.347 1104.71 326.311 1102.3 326.311C1098.2 326.311 1095.19 325.347 1093.27 323.42C1092.42 322.336 1091.52 320.77 1090.56 318.723C1088.75 315.471 1086.34 312.821 1083.33 310.773C1079.96 308.485 1077.91 305.052 1077.19 300.476C1076.83 298.91 1076.7 297.344 1076.83 295.778C1077.07 294.213 1077.01 292.225 1076.64 289.816C1076.4 287.408 1075.92 285.24 1075.2 283.312C1074.48 281.385 1074.06 279.579 1073.93 277.893C1073.33 272.834 1071.65 270.124 1068.88 269.763C1066.83 269.522 1065.62 266.451 1065.26 260.549C1065.14 257.538 1065.26 254.707 1065.62 252.058C1065.99 249.287 1066.47 246.939 1067.07 245.012C1068.03 241.519 1068.33 237.484 1067.97 232.907C1067.61 228.21 1067.61 224.055 1067.97 220.441C1068.57 213.697 1070.02 208.216 1072.31 204.001C1073.39 202.194 1074.96 200.388 1077.01 198.581C1079.17 196.774 1081.28 195.028 1083.33 193.342ZM1094.71 245.012C1095.07 246.698 1095.67 248.083 1096.52 249.167C1097.48 250.131 1098.14 251.696 1098.5 253.864C1098.99 256.032 1099.17 258.441 1099.05 261.091C1098.93 263.62 1098.87 266.089 1098.87 268.498C1098.87 270.786 1098.99 272.894 1099.23 274.821C1099.47 276.628 1099.83 278.314 1100.31 279.88C1101.64 283.614 1103.5 285.48 1105.91 285.48C1109.65 285.48 1112.24 278.254 1113.68 263.801C1114.16 259.826 1114.4 254.768 1114.4 248.625C1114.4 242.362 1113.44 237.002 1111.51 232.546C1109.59 227.969 1107.24 225.681 1104.47 225.681C1101.82 225.681 1099.41 228.632 1097.24 234.533C1095.31 239.833 1094.47 243.326 1094.71 245.012ZM1156.32 185.393C1159.09 185.633 1161.5 185.754 1163.54 185.754C1165.71 185.633 1168.9 185.633 1173.12 185.754C1180.1 186.115 1185.04 185.633 1187.93 184.309C1193.84 181.298 1198.59 180.936 1202.21 183.225C1203.89 184.188 1205.52 184.79 1207.08 185.031C1208.65 185.272 1210.88 184.549 1213.77 182.863C1216.9 181.538 1219.49 181.237 1221.54 181.96C1223.58 182.683 1225.09 183.586 1226.05 184.67C1227.02 185.754 1227.62 187.681 1227.86 190.451C1228.22 193.101 1228.28 195.751 1228.04 198.4C1227.92 201.05 1227.68 203.519 1227.32 205.808C1226.6 211.95 1226.29 215.985 1226.42 217.912C1226.66 219.839 1226.9 221.826 1227.14 223.874C1227.5 225.922 1227.62 227.909 1227.5 229.836C1227.26 234.533 1225.33 237.183 1221.72 237.785C1219.07 238.146 1217.14 237.544 1215.94 235.979C1214.73 234.292 1213.71 232.486 1212.87 230.559C1212.14 228.511 1211.36 226.704 1210.52 225.139C1209.79 223.573 1208.71 223.031 1207.26 223.513C1205.82 223.874 1204.92 225.44 1204.55 228.21C1204.19 230.86 1204.07 234.051 1204.19 237.785C1204.31 241.398 1204.55 245.192 1204.92 249.167C1205.28 253.021 1205.52 256.333 1205.64 259.104C1205.76 261.753 1205.88 264.463 1206 267.233C1206.24 270.004 1206.36 272.593 1206.36 275.002C1206.36 280.181 1205.64 283.734 1204.19 285.661C1203.47 286.625 1203.11 287.769 1203.11 289.094C1203.11 290.419 1203.23 291.804 1203.47 293.249C1203.83 294.694 1204.19 296.14 1204.55 297.585C1204.92 299.03 1205.1 300.777 1205.1 302.824C1205.1 307.642 1202.93 311.014 1198.59 312.941C1197.03 313.664 1195.58 314.868 1194.26 316.555C1192.93 318.241 1191.91 319.325 1191.19 319.807C1190.58 320.409 1189.8 320.59 1188.84 320.349C1187.99 320.228 1187.33 319.807 1186.85 319.084C1186.49 318.482 1186.13 317.819 1185.77 317.097C1185.04 315.17 1184.02 313.905 1182.69 313.303C1181.13 312.941 1180.17 311.617 1179.8 309.328C1179.56 307.04 1179.38 305.052 1179.26 303.366C1179.26 301.56 1179.14 299.392 1178.9 296.862C1178.66 294.333 1177.88 292.285 1176.55 290.72C1175.23 289.154 1174.14 288.19 1173.3 287.829C1172.46 287.347 1171.91 286.324 1171.67 284.758C1171.43 283.072 1171.43 281.385 1171.67 279.699C1172.04 278.013 1172.46 276.146 1172.94 274.099C1174.38 268.197 1175.17 262.657 1175.29 257.478C1175.65 247.842 1175.65 241.459 1175.29 238.327C1174.81 232.064 1173.12 228.933 1170.23 228.933C1168.78 229.053 1167.76 229.715 1167.16 230.92C1166.56 232.004 1165.89 233.329 1165.17 234.895C1163.48 238.869 1160.41 239.953 1155.96 238.146C1154.39 237.424 1153.37 236.28 1152.88 234.714C1152.52 233.148 1152.28 231.341 1152.16 229.294C1152.16 227.126 1152.1 224.898 1151.98 222.609C1151.98 220.201 1151.56 217.972 1150.72 215.925C1149.99 213.757 1149.27 211.709 1148.55 209.782C1147.83 207.855 1147.53 205.928 1147.65 204.001C1147.77 202.074 1148.19 200.207 1148.91 198.4C1149.75 196.594 1149.99 194.787 1149.63 192.98C1149.39 191.174 1149.75 189.427 1150.72 187.741C1151.8 185.935 1153.67 185.152 1156.32 185.393Z" fill="#1F86FF"/>
<path d="M1344.23 313.983C1340.36 313.983 1336.51 312.85 1333.17 310.627L1306.53 292.908C1304.24 291.39 1303.62 288.31 1305.14 286.029C1306.66 283.748 1309.74 283.129 1312.02 284.647L1338.66 302.365C1341.56 304.291 1345.05 304.604 1348.24 303.225C1351.43 301.847 1353.59 299.092 1354.18 295.667L1368.93 208.675C1369.56 204.952 1368.16 201.349 1365.17 199.037C1362.18 196.724 1358.34 196.264 1354.89 197.805L1267.84 236.715C1264.44 238.234 1262.22 241.356 1261.91 245.064C1261.6 248.773 1263.27 252.218 1266.37 254.28L1278.52 262.364C1280.81 263.882 1281.42 266.961 1279.91 269.243C1278.39 271.523 1275.31 272.143 1273.02 270.625L1260.87 262.541C1247.8 254.171 1249.51 233.74 1263.78 227.657L1350.84 188.746C1357.59 185.731 1365.41 186.668 1371.25 191.192C1377.09 195.716 1379.95 203.05 1378.72 210.333L1363.96 297.325C1362.83 304.027 1358.42 309.638 1352.18 312.334C1349.62 313.438 1346.92 313.983 1344.23 313.983V313.983ZM1295.13 309.039V286.13C1295.13 281.667 1296.95 277.305 1300.12 274.164L1346.77 227.973C1348.71 226.044 1348.73 222.903 1346.8 220.957C1344.87 219.01 1341.73 218.995 1339.78 220.924L1293.14 267.115C1288.09 272.107 1285.2 279.037 1285.2 286.13V309.039C1285.2 311.779 1287.43 314 1290.17 314C1292.91 314 1295.13 311.779 1295.13 309.039V309.039Z" fill="black"/>
<path d="M226.218 223.275V235.046C226.17 239.447 224.418 243.658 221.329 246.793C218.24 249.929 214.056 251.744 209.656 251.858H183.177C179.646 251.928 176.283 253.377 173.806 255.894C171.329 258.411 169.935 261.797 169.921 265.328V290.569C169.921 297.753 176.168 301.983 183.177 304.043C191.797 306.739 201.036 306.739 209.656 304.043C216.332 302.11 222.912 298.221 222.912 290.573V280.465H196.433V277.095H236.168C243.871 277.095 246.744 271.721 249.423 263.657C252.144 254.88 252.144 245.486 249.423 236.709C247.518 229.042 243.883 223.271 236.168 223.271L226.218 223.275ZM211.327 287.204C212.33 287.189 213.315 287.473 214.156 288.019C214.997 288.566 215.656 289.351 216.05 290.273C216.443 291.196 216.553 292.215 216.366 293.2C216.178 294.186 215.701 295.093 214.996 295.806C214.291 296.52 213.39 297.007 212.407 297.207C211.423 297.406 210.403 297.308 209.476 296.926C208.549 296.543 207.756 295.893 207.2 295.059C206.643 294.224 206.347 293.243 206.35 292.24C206.345 291.582 206.47 290.929 206.717 290.32C206.965 289.71 207.33 289.155 207.793 288.687C208.255 288.218 208.805 287.846 209.412 287.591C210.018 287.336 210.669 287.203 211.327 287.2V287.204Z" fill="black"/>
<path d="M195.845 194.937C191.599 194.942 187.362 195.304 183.177 196.02C171.957 198.001 169.921 202.148 169.921 209.8V219.9H196.432V223.27H159.972C156.069 223.198 152.267 224.507 149.236 226.967C146.206 229.426 144.142 232.878 143.41 236.712C140.921 245.521 140.921 254.847 143.41 263.656C145.295 271.502 149.796 277.094 157.499 277.094H166.615V264.985C166.712 260.632 168.491 256.485 171.579 253.414C174.666 250.344 178.823 248.588 183.177 248.515H209.656C211.412 248.502 213.147 248.143 214.763 247.459C216.38 246.775 217.845 245.779 219.076 244.528C220.307 243.277 221.28 241.795 221.938 240.168C222.596 238.541 222.927 236.8 222.912 235.045V209.8C222.689 206.306 221.235 203.005 218.808 200.482C216.381 197.959 213.139 196.378 209.656 196.02C205.091 195.273 200.471 194.911 195.845 194.937V194.937ZM181.51 203.065C182.512 203.05 183.495 203.333 184.335 203.878C185.176 204.424 185.835 205.206 186.229 206.127C186.624 207.048 186.736 208.065 186.551 209.05C186.366 210.034 185.892 210.942 185.19 211.656C184.488 212.371 183.59 212.861 182.609 213.064C181.628 213.267 180.609 213.174 179.681 212.796C178.753 212.418 177.958 211.773 177.398 210.943C176.837 210.113 176.536 209.135 176.533 208.133C176.524 206.802 177.042 205.521 177.975 204.571C178.908 203.621 180.179 203.079 181.51 203.065V203.065Z" fill="black"/>
</svg>
